<?xml version="1.0" standalone="no"?>
<!DOCTYPE svg PUBLIC "-//W3C//DTD SVG 20010904//EN"
 "http://www.w3.org/TR/2001/REC-SVG-20010904/DTD/svg10.dtd">
<svg version="1.0" xmlns="http://www.w3.org/2000/svg"
 width="1024.000000pt" height="1024.000000pt" viewBox="0 0 1024.000000 1024.000000"
 preserveAspectRatio="xMidYMid meet">
<metadata>
Created by potrace 1.14, written by Peter Selinger 2001-2017
</metadata>
<g transform="translate(0.000000,1024.000000) scale(0.100000,-0.100000)"
fill="#000000" stroke="none">
<path d="M7774 9507 c-3 -9 -11 -17 -16 -17 -5 0 -40 -24 -77 -52 -60 -47
-105 -95 -136 -150 -56 -98 -267 -415 -303 -458 -17 -19 -40 -46 -52 -60 -129
-152 -322 -296 -419 -315 -12 -2 -25 -6 -29 -9 -36 -22 -285 -24 -321 -2 -3 2
-23 7 -43 10 -20 3 -72 18 -115 32 -43 15 -84 27 -90 27 -7 0 -13 4 -13 9 0 4
-10 8 -23 8 -13 0 -27 4 -33 9 -10 9 -115 49 -149 56 -11 3 -47 11 -80 19
-210 52 -439 54 -650 6 -33 -8 -62 -14 -65 -15 -24 -5 -151 -51 -175 -63 -16
-9 -32 -17 -35 -17 -23 -4 -58 -20 -72 -33 -10 -8 -18 -12 -18 -9 0 4 -35 -14
-77 -40 -161 -96 -294 -159 -307 -145 -3 3 -6 1 -6 -5 0 -5 -6 -10 -12 -11 -7
0 -35 -4 -63 -9 -154 -27 -293 37 -378 174 -28 46 -77 156 -88 198 -32 126
-46 186 -54 235 -2 14 -6 41 -10 60 -3 19 -8 51 -11 70 -2 19 -11 75 -20 123
-8 48 -12 92 -9 97 3 5 1 11 -5 15 -5 3 -10 24 -10 45 0 21 -5 42 -10 45 -10
6 -227 -206 -262 -255 -19 -28 -43 -59 -75 -100 -13 -15 -23 -32 -23 -37 0 -5
-9 -19 -20 -31 -12 -12 -18 -22 -15 -22 3 0 -6 -20 -20 -44 -49 -83 -90 -215
-101 -321 -5 -40 -7 -145 -4 -155 1 -3 3 -16 6 -30 16 -95 26 -130 53 -199 26
-65 94 -183 115 -201 9 -7 16 -16 16 -21 0 -27 202 -229 318 -317 53 -40 137
-150 144 -188 4 -24 -162 -78 -217 -70 -40 5 -80 13 -80 16 0 1 -8 3 -17 5
-10 2 -48 13 -85 25 -38 12 -72 23 -78 25 -5 1 -17 5 -25 8 -34 14 -229 76
-285 91 -146 37 -441 76 -611 81 -44 1 -85 4 -90 7 -17 8 -199 1 -226 -10 -31
-13 -103 -85 -124 -124 -16 -31 -25 -84 -15 -94 3 -3 6 -13 7 -22 0 -23 15
-85 23 -97 3 -5 6 -12 6 -15 1 -12 94 -190 105 -200 3 -3 25 -32 50 -65 58
-79 89 -113 182 -204 165 -161 346 -274 478 -297 14 -2 48 -9 75 -14 28 -5 68
-12 90 -15 23 -3 50 -7 61 -9 12 -2 45 -7 75 -11 30 -3 65 -8 79 -10 14 -3 50
-7 80 -10 30 -3 62 -8 70 -10 8 -2 44 -7 80 -10 75 -7 92 -22 80 -66 -5 -16
-5 -29 0 -29 4 0 7 -25 7 -55 -1 -30 0 -55 3 -55 3 0 5 -27 4 -60 0 -33 4 -60
8 -60 5 0 4 -8 -1 -19 -6 -10 -8 -21 -5 -23 3 -3 7 -41 9 -84 5 -93 14 -238
19 -311 2 -33 -1 -57 -8 -63 -9 -7 -32 53 -89 228 -43 130 -77 243 -77 250 0
6 -7 12 -15 12 -9 0 -15 -9 -15 -25 0 -14 -4 -25 -8 -25 -4 0 -8 -8 -9 -18 -1
-10 -18 -54 -38 -98 -20 -43 -36 -79 -34 -79 5 0 -133 -219 -156 -248 -14 -18
-40 -50 -58 -71 -46 -56 -171 -181 -215 -213 -20 -16 -46 -36 -56 -45 -11 -10
-23 -18 -27 -18 -3 0 -22 -13 -40 -30 -19 -16 -37 -30 -41 -30 -4 0 -31 -15
-60 -33 -29 -18 -75 -44 -103 -57 -27 -14 -53 -29 -57 -35 -4 -5 -8 -6 -8 -1
0 4 -11 1 -25 -8 -13 -9 -31 -16 -39 -16 -8 0 -16 -3 -18 -7 -1 -5 -41 -23
-88 -41 -47 -19 -98 -40 -115 -47 -31 -14 -243 -88 -355 -125 -36 -11 -72 -24
-80 -27 -8 -3 -20 -7 -26 -8 -6 -2 -83 -26 -172 -55 -89 -28 -170 -53 -180
-55 -9 -2 -18 -4 -19 -5 -2 -2 -6 -3 -10 -4 -10 -2 -173 -56 -193 -63 -8 -3
-22 -7 -30 -9 -7 -2 -33 -10 -57 -19 -34 -13 -43 -22 -43 -41 0 -13 3 -24 8
-25 4 0 205 -1 446 -2 429 -2 439 -2 446 -22 4 -11 4 -27 0 -35 -4 -8 -6 -69
-5 -135 2 -159 19 -201 96 -238 54 -26 116 -36 274 -42 98 -4 238 -16 248 -22
4 -2 22 -6 40 -9 18 -2 42 -6 55 -9 12 -3 30 -7 41 -9 37 -9 157 -60 195 -84
60 -37 133 -119 161 -179 52 -114 61 -257 29 -438 -9 -49 -18 -99 -19 -110 -2
-11 -4 -20 -5 -20 -1 0 -3 -7 -5 -15 -2 -8 -13 -46 -25 -85 -25 -83 -24 -81
-44 -170 -36 -173 -44 -291 -31 -479 3 -49 8 -92 10 -96 2 -3 7 -29 11 -56 3
-27 8 -52 11 -57 2 -4 6 -18 9 -31 14 -78 68 -218 139 -356 108 -214 315 -471
475 -591 173 -129 350 -139 493 -27 73 57 147 145 212 253 27 44 69 99 93 122
44 42 176 117 222 127 126 28 213 45 255 51 28 4 61 8 75 11 14 2 54 6 90 9
70 6 104 10 162 20 l38 6 -10 -28 c-6 -15 -15 -37 -20 -48 -5 -11 -32 -78 -60
-150 -28 -71 -55 -140 -60 -152 -14 -33 -24 -56 -65 -163 -21 -52 -41 -100
-46 -106 -5 -6 -6 -14 -2 -17 3 -4 0 -14 -8 -23 -7 -9 -14 -21 -15 -28 -1 -6
-10 -29 -20 -51 -10 -22 -19 -47 -20 -55 -2 -9 -14 -41 -28 -72 -14 -31 -22
-59 -19 -62 4 -3 1 -6 -5 -6 -7 0 -12 -7 -12 -15 0 -18 14 -19 32 -2 7 7 42
33 78 57 36 25 79 57 95 72 17 16 33 28 36 28 9 0 151 134 207 195 45 50 132
186 175 277 37 77 130 325 142 378 3 14 102 377 161 590 61 221 135 310 258
310 45 0 143 -25 164 -42 6 -6 12 -7 12 -3 0 4 6 3 13 -2 15 -12 95 -42 128
-48 128 -26 259 -30 360 -10 48 9 164 47 177 57 6 6 12 8 12 4 0 -3 23 8 50
24 28 17 55 30 60 30 6 0 10 5 10 10 0 6 6 10 14 10 7 0 19 7 26 15 10 12 8
13 -12 9 -12 -3 -46 -7 -75 -9 -28 -1 -55 -5 -60 -8 -11 -5 -266 -1 -323 7
-84 10 -185 28 -195 34 -5 4 -14 7 -20 8 -45 8 -70 16 -135 39 -150 55 -293
133 -415 227 -84 65 -275 255 -275 273 0 3 -11 18 -24 33 -32 35 -76 100 -76
112 0 4 -4 10 -10 12 -11 4 -125 207 -135 240 -5 18 -4 20 4 8 6 -8 11 -10 11
-5 0 7 3 7 8 0 6 -8 88 -78 127 -108 6 -4 26 -21 45 -37 19 -17 68 -56 109
-88 40 -31 92 -74 115 -94 22 -21 47 -38 54 -38 6 0 12 -4 12 -8 0 -4 43 -41
95 -82 53 -41 108 -85 123 -98 82 -70 305 -202 342 -202 6 0 10 -5 10 -12 0
-6 3 -9 6 -5 4 3 23 0 43 -8 42 -17 168 -50 226 -60 64 -11 366 -15 410 -5 22
5 58 11 80 15 78 13 166 40 243 76 35 16 65 29 67 29 2 0 30 15 62 34 51 30
71 44 121 86 6 6 12 8 12 5 0 -2 32 28 72 68 70 71 180 225 172 239 -7 12
-118 -65 -164 -113 -40 -42 -219 -166 -232 -161 -5 1 -8 -3 -8 -9 0 -5 -4 -7
-10 -4 -5 3 -10 2 -10 -3 0 -16 -215 -107 -279 -117 -19 -3 -38 -8 -43 -11
-41 -25 -355 -39 -453 -20 -22 4 -53 9 -70 11 -93 11 -295 99 -425 184 -181
119 -276 231 -306 361 -4 19 -10 42 -13 50 -2 8 -5 206 -6 440 -2 382 -8 577
-20 695 -13 125 -17 158 -31 235 -23 127 -57 248 -119 424 -30 86 -57 167 -59
179 -3 12 -18 81 -35 152 -16 72 -32 148 -35 170 -3 22 -8 51 -11 65 -3 14 -8
41 -11 60 -2 19 -9 58 -14 85 -5 28 -12 68 -16 90 -10 69 -86 431 -105 497 -7
24 -13 48 -15 55 -1 7 -9 27 -18 44 -9 18 -16 36 -16 41 0 19 -65 104 -120
158 -31 30 -92 87 -135 125 -43 39 -89 80 -102 93 -13 12 -26 22 -29 22 -3 0
-15 9 -27 21 -25 24 -44 39 -147 115 -41 31 -76 60 -78 65 -2 5 -9 9 -14 9 -6
0 -44 25 -85 55 -40 31 -73 52 -73 48 0 -5 -4 -3 -8 2 -4 6 -29 25 -55 42 -66
43 -147 58 -352 65 l-79 3 -11 -37 c-18 -64 -9 -68 -183 102 -100 98 -175 180
-165 180 3 0 -3 8 -13 18 -10 9 -25 26 -32 37 -38 60 -52 81 -59 90 -20 24
-93 190 -108 243 -18 65 -28 249 -13 258 4 3 6 10 2 15 -7 12 46 169 57 169 5
0 9 5 9 11 0 15 72 118 88 124 8 3 12 -5 11 -23 -2 -53 10 -138 31 -217 12
-44 23 -87 25 -95 18 -86 110 -278 163 -342 69 -81 170 -156 222 -163 3 0 10
-3 16 -7 40 -26 243 -34 334 -13 14 3 37 7 51 9 14 2 95 27 180 56 212 71 300
74 419 14 80 -40 169 -139 213 -236 34 -75 46 -104 65 -158 12 -30 31 -81 44
-112 l24 -57 26 23 c15 12 39 31 53 42 32 23 220 168 257 197 15 12 37 30 50
39 31 24 211 162 288 222 49 39 72 50 104 52 63 4 137 14 181 26 22 6 45 11
50 12 71 13 279 106 342 152 17 13 35 24 38 24 8 0 162 118 213 163 94 84 250
246 347 362 32 39 62 72 67 73 4 2 8 8 8 13 0 5 8 17 18 27 19 21 35 40 113
137 30 39 64 82 73 98 10 15 22 27 26 27 14 0 -42 -211 -77 -289 -8 -18 -16
-39 -17 -45 -3 -20 -67 -125 -107 -176 -38 -48 -226 -240 -234 -240 -3 0 -29
-24 -60 -53 -30 -30 -55 -53 -55 -51 0 5 -135 -124 -275 -261 -136 -134 -182
-196 -187 -252 -1 -7 -5 -13 -10 -13 -5 0 -7 -4 -4 -9 4 -5 -3 -74 -15 -153
-11 -78 -22 -152 -24 -163 -13 -96 -17 -122 -22 -135 -2 -8 -6 -37 -8 -65 -2
-27 -7 -79 -12 -115 -9 -81 -10 -377 -1 -445 6 -50 26 -149 33 -173 3 -7 5
-16 6 -20 8 -34 58 -152 94 -217 75 -140 95 -182 124 -260 58 -157 51 -392
-19 -590 -35 -99 -52 -185 -55 -280 -4 -130 34 -290 87 -367 10 -14 18 -29 18
-33 0 -14 91 -134 133 -178 38 -38 94 -104 164 -194 13 -15 23 -34 23 -40 0
-7 5 -13 10 -13 6 0 10 -4 10 -10 0 -5 -10 -9 -22 -9 -13 1 -52 -1 -88 -5 -36
-3 -92 -8 -125 -11 -33 -3 -76 -7 -95 -10 -19 -2 -60 -7 -90 -10 -30 -4 -66
-8 -80 -10 -14 -2 -43 -6 -65 -10 -23 -3 -52 -8 -65 -10 -14 -3 -41 -8 -60
-11 -19 -3 -57 -12 -85 -20 -27 -8 -52 -15 -55 -15 -48 -11 -146 -53 -195 -84
-87 -56 -147 -125 -199 -230 -38 -76 -45 -105 -23 -88 6 6 39 25 71 43 l59 32
-7 -83 c-24 -274 -12 -379 47 -423 27 -20 42 -21 220 -21 147 -1 200 -4 225
-15 17 -8 32 -18 32 -21 0 -4 8 -9 18 -13 9 -3 31 -15 47 -26 62 -40 213 -109
280 -127 68 -19 169 -23 228 -9 47 11 143 60 190 96 107 83 213 204 263 300
16 30 34 58 39 62 6 4 6 8 1 8 -5 0 -4 6 2 13 22 28 74 209 74 259 0 67 -6
108 -19 133 -6 11 -8 26 -6 33 3 6 0 12 -6 12 -6 0 -11 6 -11 13 0 25 -35 55
-100 85 -161 74 -295 212 -381 389 -30 62 -78 185 -84 213 -3 13 -37 141 -65
240 -5 19 -16 59 -24 88 -8 28 -12 52 -9 52 3 0 1 6 -5 13 -6 7 -13 32 -16 57
-4 25 -10 65 -15 89 -5 24 -8 96 -6 160 2 118 28 225 62 259 7 7 13 18 13 24
0 17 106 116 160 149 l51 31 -6 102 c-4 55 -8 121 -10 146 -5 61 -16 245 -18
300 l-2 45 210 1 c116 0 230 4 255 8 143 22 250 55 365 112 64 33 163 91 175
104 3 3 21 17 40 31 39 30 141 128 181 174 60 71 200 305 182 305 -3 0 -1 6 4
13 5 6 18 39 27 72 10 33 21 69 25 80 4 11 7 72 7 135 -1 104 -4 121 -29 171
-52 107 -138 171 -277 205 -76 18 -406 28 -485 14 -27 -4 -66 -11 -85 -15 -86
-15 -256 -84 -331 -133 -51 -34 -84 -57 -89 -63 -8 -9 -109 -72 -175 -109 -68
-38 -155 -82 -329 -164 l-119 -57 -43 48 c-39 43 -56 83 -36 83 4 0 46 43 92
97 47 53 108 121 135 152 80 89 285 293 344 342 30 24 64 53 76 64 13 11 47
40 76 65 72 61 188 178 235 236 21 27 41 51 44 54 13 13 114 191 116 205 1 6
11 35 22 65 68 184 38 492 -59 596 -10 11 -19 24 -19 30 -1 5 -12 22 -25 39
-21 25 -25 27 -31 12z"/>
</g>
</svg>
